<?xml version="1.0" encoding="UTF-8"?>
<svg xmlns="http://www.w3.org/2000/svg" xmlns:xlink="http://www.w3.org/1999/xlink" version="1.1" width="447.25" height="367.74999998882413">
  <defs>
    <clipPath id="clip1">
      <path d="M0 0L447.25 0L447.25 367.74999998882413L0 367.74999998882413L0 0"/>
    </clipPath>
    <pattern x="0" y="0" width="4" height="4" id="thin-horiz" patternUnits="userSpaceOnUse">
      <rect x="-0.1" y="-0.1" width="4.2000000000000002" height="4.2000000000000002" style="stroke:none;fill:#333333;fill-opacity:1;"/>
      <path d="M 0.0000000,0.50000000 L 2.0000000,0.50000000 L 2.0000000,1.0000000 L 0.0000000,1.0000000 L 0.0000000,0.50000000 z " style="stroke:none;fill:#ffffff;fill-opacity:1;" transform="scale(2)"/>
    </pattern>
    <pattern x="0" y="0" width="8" height="8" id="bricks" patternUnits="userSpaceOnUse">
      <rect x="-0.1" y="-0.1" width="8.1999999999999993" height="8.1999999999999993" style="stroke:none;fill:#00ff00;fill-opacity:1;"/>
      <path d="M 0.0000000,0.0000000 L 0.0000000,0.100000000 L 0.90000000,0.100000000 L 0.90000000,1.9000000 L 0.0000000,1.9000000 L 0.0000000,2.1000000 L 2.9000000,2.1000000 L 2.9000000,3.9000000 L 0.0000000,3.9000000 L 0.0000000,4.0000000 L 4.0000000,4.0000000 L 4.0000000,3.9000000 L 3.1000000,3.9000000 L 3.1000000,2.1000000 L 4.0000000,2.1000000 L 4.0000000,1.9000000 L 1.1000000,1.9000000 L 1.1000000,0.100000000 L 4.0000000,0.100000000 L 4.0000000,0.0000000 L 0.0000000,0.0000000 z " style="stroke:none;fill:#000000;fill-opacity:1;" transform="scale(2)"/>
    </pattern>
    <clipPath id="clip2">
      <path d="M22.783307086614162 8.783307086614176L443.46669291338583 8.783307086614176L443.46669291338583 349.96669290220996L22.783307086614162 349.96669290220996L22.783307086614162 8.783307086614176"/>
    </clipPath>
    <pattern x="0" y="0" width="8" height="8" id="rev-diag" patternUnits="userSpaceOnUse">
      <rect x="-0.1" y="-0.1" width="8.1999999999999993" height="8.1999999999999993" style="stroke:none;fill:#ff0000;fill-opacity:1;"/>
      <path d="M 1.0000000,0.0000000 L 0.0000000,0.0000000 L 0.0000000,1.0000000 L 3.0000000,4.0000000 L 4.0000000,4.0000000 L 4.0000000,3.0000000 L 1.0000000,0.0000000 z M 0.0000000,3.0000000 L 1.0000000,4.0000000 L 0.0000000,4.0000000 L 0.0000000,3.0000000 z M 4.0000000,1.0000000 L 3.0000000,0.0000000 L 4.0000000,0.0000000 L 4.0000000,1.0000000 z " style="stroke:none;fill:#000000;fill-opacity:1;" transform="scale(2)"/>
    </pattern>
  </defs>
  <g clip-path="url(#clip1)">
    <path d="M0.12 0.12L0.12 367.62999998882412L447.13 367.62999998882412L447.13 0.12L0.12 0.12z" fill="url(#thin-horiz)" stroke-width="0.23999999999999999" stroke="#000000"/>
    <path d="M22.783307086614162 8.783307086614176L22.783307086614162 349.96669290220996L443.46669291338583 349.96669290220996L443.46669291338583 8.783307086614176L22.783307086614162 8.783307086614176z" fill="url(#bricks)" stroke-width="1" stroke="#848284"/>
    <path d="M22.783307086614162 349.96669290220996L443.46669291338583 349.96669290220996" fill="none" stroke-width="0.23999999999999999" stroke="#000000"/>
    <path d="M22.783307086614162 354.08669290220996L22.783307086614162 349.96669290220996" fill="none" stroke-width="0.23999999999999999" stroke="#000000"/>
    <path d="M106.91998425196849 354.08669290220996L106.91998425196849 349.96669290220996" fill="none" stroke-width="0.23999999999999999" stroke="#000000"/>
    <path d="M191.05666141732283 354.08669290220996L191.05666141732283 349.96669290220996" fill="none" stroke-width="0.23999999999999999" stroke="#000000"/>
    <path d="M275.19333858267714 354.08669290220996L275.19333858267714 349.96669290220996" fill="none" stroke-width="0.23999999999999999" stroke="#000000"/>
    <path d="M359.33001574803149 354.08669290220996L359.33001574803149 349.96669290220996" fill="none" stroke-width="0.23999999999999999" stroke="#000000"/>
    <path d="M443.46669291338583 354.08669290220996L443.46669291338583 349.96669290220996" fill="none" stroke-width="0.23999999999999999" stroke="#000000"/>
    <text x="64.851645669291329" y="362.08669290220996" text-anchor="middle" transform="rotate(-0,64.851645669291329,359.08669290220996)" fill="#000000" font-family="Sans" font-size="8">1</text>
    <text x="148.98832283464566" y="362.08669290220996" text-anchor="middle" transform="rotate(-0,148.98832283464566,359.08669290220996)" fill="#000000" font-family="Sans" font-size="8">2</text>
    <text x="233.125" y="362.08669290220996" text-anchor="middle" transform="rotate(-0,233.125,359.08669290220996)" fill="#000000" font-family="Sans" font-size="8">3</text>
    <text x="317.26167716535434" y="362.08669290220996" text-anchor="middle" transform="rotate(-0,317.26167716535434,359.08669290220996)" fill="#000000" font-family="Sans" font-size="8">4</text>
    <text x="401.39835433070863" y="362.08669290220996" text-anchor="middle" transform="rotate(-0,401.39835433070863,359.08669290220996)" fill="#000000" font-family="Sans" font-size="8">5</text>
    <path d="M22.783307086614162 349.96669290220996L22.783307086614162 8.7833070866141725" fill="none" stroke-width="0.23999999999999999" stroke-dasharray="2.1600000000000001 0.71999999999999997 1.4399999999999999 0.71999999999999997" stroke="#000000"/>
    <path d="M18.663307086614161 349.96669290220996L22.783307086614162 349.96669290220996" fill="none" stroke-width="0.23999999999999999" stroke-dasharray="2.1600000000000001 0.71999999999999997 1.4399999999999999 0.71999999999999997" stroke="#000000"/>
    <text x="13.663307086614161" y="352.96669290220996" text-anchor="middle" transform="rotate(-0,13.663307086614161,349.96669290220996)" fill="#000000" font-family="Sans" font-size="8">0</text>
    <path d="M18.663307086614164 312.05742781158818L22.783307086614165 312.05742781158818" fill="none" stroke-width="0.23999999999999999" stroke-dasharray="2.1600000000000001 0.71999999999999997 1.4399999999999999 0.71999999999999997" stroke="#000000"/>
    <text x="13.663307086614163" y="315.05742781158818" text-anchor="middle" transform="rotate(-0,13.663307086614163,312.05742781158818)" fill="#000000" font-family="Sans" font-size="8">2</text>
    <path d="M18.663307086614164 274.14816272096647L22.783307086614165 274.14816272096647" fill="none" stroke-width="0.23999999999999999" stroke-dasharray="2.1600000000000001 0.71999999999999997 1.4399999999999999 0.71999999999999997" stroke="#000000"/>
    <text x="13.663307086614166" y="277.14816272096647" text-anchor="middle" transform="rotate(-0,13.663307086614166,274.14816272096647)" fill="#000000" font-family="Sans" font-size="8">4</text>
    <path d="M18.663307086614168 236.2388976303447L22.783307086614169 236.2388976303447" fill="none" stroke-width="0.23999999999999999" stroke-dasharray="2.1600000000000001 0.71999999999999997 1.4399999999999999 0.71999999999999997" stroke="#000000"/>
    <text x="13.663307086614168" y="239.2388976303447" text-anchor="middle" transform="rotate(-0,13.663307086614168,236.2388976303447)" fill="#000000" font-family="Sans" font-size="8">6</text>
    <path d="M18.663307086614171 198.32963253972295L22.783307086614172 198.32963253972295" fill="none" stroke-width="0.23999999999999999" stroke-dasharray="2.1600000000000001 0.71999999999999997 1.4399999999999999 0.71999999999999997" stroke="#000000"/>
    <text x="13.66330708661417" y="201.32963253972295" text-anchor="middle" transform="rotate(-0,13.66330708661417,198.32963253972295)" fill="#000000" font-family="Sans" font-size="8">8</text>
    <path d="M18.663307086614171 160.42036744910121L22.783307086614172 160.42036744910121" fill="none" stroke-width="0.23999999999999999" stroke-dasharray="2.1600000000000001 0.71999999999999997 1.4399999999999999 0.71999999999999997" stroke="#000000"/>
    <text x="11.163307086614173" y="163.42036744910121" text-anchor="middle" transform="rotate(-0,11.163307086614173,160.42036744910121)" fill="#000000" font-family="Sans" font-size="8">10</text>
    <path d="M18.663307086614175 122.51110235847943L22.783307086614176 122.51110235847943" fill="none" stroke-width="0.23999999999999999" stroke-dasharray="2.1600000000000001 0.71999999999999997 1.4399999999999999 0.71999999999999997" stroke="#000000"/>
    <text x="11.163307086614175" y="125.51110235847943" text-anchor="middle" transform="rotate(-0,11.163307086614175,122.51110235847943)" fill="#000000" font-family="Sans" font-size="8">12</text>
    <path d="M18.663307086614179 84.601837267857718L22.78330708661418 84.601837267857718" fill="none" stroke-width="0.23999999999999999" stroke-dasharray="2.1600000000000001 0.71999999999999997 1.4399999999999999 0.71999999999999997" stroke="#000000"/>
    <text x="11.163307086614177" y="87.601837267857718" text-anchor="middle" transform="rotate(-0,11.163307086614177,84.601837267857718)" fill="#000000" font-family="Sans" font-size="8">14</text>
    <path d="M18.663307086614179 46.692572177235945L22.78330708661418 46.692572177235945" fill="none" stroke-width="0.23999999999999999" stroke-dasharray="2.1600000000000001 0.71999999999999997 1.4399999999999999 0.71999999999999997" stroke="#000000"/>
    <text x="11.163307086614179" y="49.692572177235945" text-anchor="middle" transform="rotate(-0,11.163307086614179,46.692572177235945)" fill="#000000" font-family="Sans" font-size="8">16</text>
    <path d="M18.663307086614182 8.7833070866141725L22.783307086614183 8.7833070866141725" fill="none" stroke-width="0.23999999999999999" stroke-dasharray="2.1600000000000001 0.71999999999999997 1.4399999999999999 0.71999999999999997" stroke="#000000"/>
    <text x="11.163307086614182" y="11.783307086614172" text-anchor="middle" transform="rotate(-0,11.163307086614182,8.7833070866141725)" fill="#000000" font-family="Sans" font-size="8">18</text>
    <g clip-path="url(#clip2)">
      <path d="M48.024310236220465 349.96669290220996L81.678981102362201 349.96669290220996L81.678981102362201 331.0120603568991L48.024310236220465 331.0120603568991L48.024310236220465 349.96669290220996z" fill="url(#rev-diag)" stroke-width="0.23999999999999999" stroke="#000000"/>
      <path d="M132.1609874015748 349.96669290220996L165.81565826771654 349.96669290220996L165.81565826771654 312.05742781158818L132.1609874015748 312.05742781158818L132.1609874015748 349.96669290220996z" fill="url(#rev-diag)" stroke-width="0.23999999999999999" stroke="#000000"/>
      <path d="M216.29766456692911 349.96669290220996L249.95233543307083 349.96669290220996L249.95233543307083 274.14816272096647L216.29766456692911 274.14816272096647L216.29766456692911 349.96669290220996z" fill="url(#rev-diag)" stroke-width="0.23999999999999999" stroke="#000000"/>
      <path d="M300.43434173228343 349.96669290220996L334.0890125984252 349.96669290220996L334.0890125984252 198.32963253972295L300.43434173228343 198.32963253972295L300.43434173228343 349.96669290220996z" fill="url(#rev-diag)" stroke-width="0.23999999999999999" stroke="#000000"/>
      <path d="M384.57101889763777 349.96669290220996L418.22568976377954 349.96669290220996L418.22568976377954 46.692572177235945L384.57101889763777 46.692572177235945L384.57101889763777 349.96669290220996z" fill="url(#rev-diag)" stroke-width="0.23999999999999999" stroke="#000000"/>
    </g>
  </g>
</svg>
