<?xml version="1.0" encoding="utf-8" standalone="no"?>
<!DOCTYPE svg PUBLIC "-//W3C//DTD SVG 1.1//EN"
  "http://www.w3.org/Graphics/SVG/1.1/DTD/svg11.dtd">
<!-- Created with matplotlib (http://matplotlib.org/) -->
<svg height="345pt" version="1.1" viewBox="0 0 460 345" width="460pt" xmlns="http://www.w3.org/2000/svg" xmlns:xlink="http://www.w3.org/1999/xlink">
 <defs>
  <style type="text/css">
*{stroke-linecap:butt;stroke-linejoin:round;}
  </style>
 </defs>
 <g id="figure_1">
  <g id="patch_1">
   <path d="M 0 345.6 
L 460.8 345.6 
L 460.8 0 
L 0 0 
z
" style="fill:#ffffff;"/>
  </g>
  <g id="axes_1">
   <g id="patch_2">
    <path d="M 57.6 307.584 
L 414.72 307.584 
L 414.72 41.472 
L 57.6 41.472 
z
" style="fill:#ffffff;"/>
   </g>
   <g id="PathCollection_1">
    <defs>
     <path d="M 0 3 
C 0.795609 3 1.55874 2.683901 2.12132 2.12132 
C 2.683901 1.55874 3 0.795609 3 0 
C 3 -0.795609 2.683901 -1.55874 2.12132 -2.12132 
C 1.55874 -2.683901 0.795609 -3 0 -3 
C -0.795609 -3 -1.55874 -2.683901 -2.12132 -2.12132 
C -2.683901 -1.55874 -3 -0.795609 -3 0 
C -3 0.795609 -2.683901 1.55874 -2.12132 2.12132 
C -1.55874 2.683901 -0.795609 3 0 3 
z
" id="ma486e3f262" style="stroke:#ff0000;"/>
    </defs>
    <g clip-path="url(#pe98bedf590)">
     <use style="fill:#ff0000;stroke:#ff0000;" x="163.290197" xlink:href="#ma486e3f262" y="222.051264"/>
     <use style="fill:#ff0000;stroke:#ff0000;" x="143.154273" xlink:href="#ma486e3f262" y="255.061435"/>
     <use style="fill:#ff0000;stroke:#ff0000;" x="147.511552" xlink:href="#ma486e3f262" y="238.631535"/>
     <use style="fill:#ff0000;stroke:#ff0000;" x="203.597879" xlink:href="#ma486e3f262" y="225.480802"/>
     <use style="fill:#ff0000;stroke:#ff0000;" x="94.682743" xlink:href="#ma486e3f262" y="270.05117"/>
     <use style="fill:#ff0000;stroke:#ff0000;" x="196.316462" xlink:href="#ma486e3f262" y="218.381839"/>
     <use style="fill:#ff0000;stroke:#ff0000;" x="234.971828" xlink:href="#ma486e3f262" y="180.593682"/>
     <use style="fill:#ff0000;stroke:#ff0000;" x="239.51894" xlink:href="#ma486e3f262" y="194.044662"/>
     <use style="fill:#ff0000;stroke:#ff0000;" x="162.213986" xlink:href="#ma486e3f262" y="240.909453"/>
     <use style="fill:#ff0000;stroke:#ff0000;" x="140.698772" xlink:href="#ma486e3f262" y="256.854183"/>
     <use style="fill:#ff0000;stroke:#ff0000;" x="261.762075" xlink:href="#ma486e3f262" y="168.861606"/>
     <use style="fill:#ff0000;stroke:#ff0000;" x="214.931991" xlink:href="#ma486e3f262" y="210.667932"/>
     <use style="fill:#ff0000;stroke:#ff0000;" x="98.063721" xlink:href="#ma486e3f262" y="281.690036"/>
     <use style="fill:#ff0000;stroke:#ff0000;" x="85.76242" xlink:href="#ma486e3f262" y="276.841033"/>
     <use style="fill:#ff0000;stroke:#ff0000;" x="133.690825" xlink:href="#ma486e3f262" y="254.135096"/>
     <use style="fill:#ff0000;stroke:#ff0000;" x="80.481691" xlink:href="#ma486e3f262" y="292.701969"/>
     <use style="fill:#ff0000;stroke:#ff0000;" x="250.415455" xlink:href="#ma486e3f262" y="155.989739"/>
     <use style="fill:#ff0000;stroke:#ff0000;" x="288.060204" xlink:href="#ma486e3f262" y="149.071878"/>
     <use style="fill:#ff0000;stroke:#ff0000;" x="95.381851" xlink:href="#ma486e3f262" y="270.456179"/>
     <use style="fill:#ff0000;stroke:#ff0000;" x="180.105827" xlink:href="#ma486e3f262" y="232.770369"/>
     <use style="fill:#ff0000;stroke:#ff0000;" x="277.234132" xlink:href="#ma486e3f262" y="158.047771"/>
     <use style="fill:#ff0000;stroke:#ff0000;" x="181.595286" xlink:href="#ma486e3f262" y="224.861409"/>
     <use style="fill:#ff0000;stroke:#ff0000;" x="281.699447" xlink:href="#ma486e3f262" y="157.922176"/>
     <use style="fill:#ff0000;stroke:#ff0000;" x="138.716082" xlink:href="#ma486e3f262" y="239.273737"/>
     <use style="fill:#ff0000;stroke:#ff0000;" x="193.416405" xlink:href="#ma486e3f262" y="217.409893"/>
     <use style="fill:#ff0000;stroke:#ff0000;" x="257.76929" xlink:href="#ma486e3f262" y="188.547489"/>
     <use style="fill:#ff0000;stroke:#ff0000;" x="156.694921" xlink:href="#ma486e3f262" y="232.119055"/>
     <use style="fill:#ff0000;stroke:#ff0000;" x="220.702949" xlink:href="#ma486e3f262" y="204.308456"/>
     <use style="fill:#ff0000;stroke:#ff0000;" x="200.184934" xlink:href="#ma486e3f262" y="208.212671"/>
     <use style="fill:#ff0000;stroke:#ff0000;" x="134.970614" xlink:href="#ma486e3f262" y="249.205139"/>
     <use style="fill:#ff0000;stroke:#ff0000;" x="143.8452" xlink:href="#ma486e3f262" y="268.651608"/>
     <use style="fill:#ff0000;stroke:#ff0000;" x="143.614602" xlink:href="#ma486e3f262" y="253.224757"/>
     <use style="fill:#ff0000;stroke:#ff0000;" x="142.229137" xlink:href="#ma486e3f262" y="259.344089"/>
     <use style="fill:#ff0000;stroke:#ff0000;" x="196.339291" xlink:href="#ma486e3f262" y="222.731929"/>
     <use style="fill:#ff0000;stroke:#ff0000;" x="95.168141" xlink:href="#ma486e3f262" y="279.852931"/>
     <use style="fill:#ff0000;stroke:#ff0000;" x="106.374469" xlink:href="#ma486e3f262" y="287.764653"/>
     <use style="fill:#ff0000;stroke:#ff0000;" x="190.648252" xlink:href="#ma486e3f262" y="217.186809"/>
     <use style="fill:#ff0000;stroke:#ff0000;" x="165.48579" xlink:href="#ma486e3f262" y="218.370843"/>
     <use style="fill:#ff0000;stroke:#ff0000;" x="107.215259" xlink:href="#ma486e3f262" y="287.134074"/>
     <use style="fill:#ff0000;stroke:#ff0000;" x="260.144058" xlink:href="#ma486e3f262" y="159.511241"/>
     <use style="fill:#ff0000;stroke:#ff0000;" x="274.014007" xlink:href="#ma486e3f262" y="153.031008"/>
     <use style="fill:#ff0000;stroke:#ff0000;" x="142.54336" xlink:href="#ma486e3f262" y="248.133293"/>
     <use style="fill:#ff0000;stroke:#ff0000;" x="75.079027" xlink:href="#ma486e3f262" y="283.005685"/>
     <use style="fill:#ff0000;stroke:#ff0000;" x="132.448974" xlink:href="#ma486e3f262" y="255.702311"/>
     <use style="fill:#ff0000;stroke:#ff0000;" x="143.798085" xlink:href="#ma486e3f262" y="252.636094"/>
     <use style="fill:#ff0000;stroke:#ff0000;" x="86.426774" xlink:href="#ma486e3f262" y="295.078488"/>
     <use style="fill:#ff0000;stroke:#ff0000;" x="288.53388" xlink:href="#ma486e3f262" y="153.14414"/>
     <use style="fill:#ff0000;stroke:#ff0000;" x="133.496622" xlink:href="#ma486e3f262" y="254.794116"/>
     <use style="fill:#ff0000;stroke:#ff0000;" x="73.876661" xlink:href="#ma486e3f262" y="293.244036"/>
     <use style="fill:#ff0000;stroke:#ff0000;" x="177.359372" xlink:href="#ma486e3f262" y="229.430834"/>
    </g>
   </g>
   <g id="patch_3">
    <path clip-path="url(#pe98bedf590)" d="M 347.641758 183.937708 
C 361.126146 183.937708 374.060064 177.069421 383.594966 164.845507 
C 393.129869 152.621592 398.487273 136.04008 398.487273 118.752854 
C 398.487273 101.465629 393.129869 84.884116 383.594966 72.660202 
C 374.060064 60.436287 361.126146 53.568 347.641758 53.568 
C 334.15737 53.568 321.223452 60.436287 311.68855 72.660202 
C 302.153647 84.884116 296.796243 101.465629 296.796243 118.752854 
C 296.796243 136.04008 302.153647 152.621592 311.68855 164.845507 
C 321.223452 177.069421 334.15737 183.937708 347.641758 183.937708 
z
" style="fill:none;stroke:#0000ff;stroke-linejoin:miter;stroke-width:3;"/>
   </g>
   <g id="matplotlib.axis_1">
    <g id="xtick_1"/>
    <g id="xtick_2"/>
    <g id="xtick_3"/>
    <g id="xtick_4"/>
    <g id="xtick_5"/>
    <g id="text_1">
     <!-- X data -->
     <defs>
      <path d="M 6.296875 72.90625 
L 16.890625 72.90625 
L 35.015625 45.796875 
L 53.21875 72.90625 
L 63.8125 72.90625 
L 40.375 37.890625 
L 65.375 0 
L 54.78125 0 
L 34.28125 31 
L 13.625 0 
L 2.984375 0 
L 29 38.921875 
z
" id="DejaVuSans-58"/>
      <path id="DejaVuSans-20"/>
      <path d="M 45.40625 46.390625 
L 45.40625 75.984375 
L 54.390625 75.984375 
L 54.390625 0 
L 45.40625 0 
L 45.40625 8.203125 
Q 42.578125 3.328125 38.25 0.953125 
Q 33.9375 -1.421875 27.875 -1.421875 
Q 17.96875 -1.421875 11.734375 6.484375 
Q 5.515625 14.40625 5.515625 27.296875 
Q 5.515625 40.1875 11.734375 48.09375 
Q 17.96875 56 27.875 56 
Q 33.9375 56 38.25 53.625 
Q 42.578125 51.265625 45.40625 46.390625 
z
M 14.796875 27.296875 
Q 14.796875 17.390625 18.875 11.75 
Q 22.953125 6.109375 30.078125 6.109375 
Q 37.203125 6.109375 41.296875 11.75 
Q 45.40625 17.390625 45.40625 27.296875 
Q 45.40625 37.203125 41.296875 42.84375 
Q 37.203125 48.484375 30.078125 48.484375 
Q 22.953125 48.484375 18.875 42.84375 
Q 14.796875 37.203125 14.796875 27.296875 
z
" id="DejaVuSans-64"/>
      <path d="M 34.28125 27.484375 
Q 23.390625 27.484375 19.1875 25 
Q 14.984375 22.515625 14.984375 16.5 
Q 14.984375 11.71875 18.140625 8.90625 
Q 21.296875 6.109375 26.703125 6.109375 
Q 34.1875 6.109375 38.703125 11.40625 
Q 43.21875 16.703125 43.21875 25.484375 
L 43.21875 27.484375 
z
M 52.203125 31.203125 
L 52.203125 0 
L 43.21875 0 
L 43.21875 8.296875 
Q 40.140625 3.328125 35.546875 0.953125 
Q 30.953125 -1.421875 24.3125 -1.421875 
Q 15.921875 -1.421875 10.953125 3.296875 
Q 6 8.015625 6 15.921875 
Q 6 25.140625 12.171875 29.828125 
Q 18.359375 34.515625 30.609375 34.515625 
L 43.21875 34.515625 
L 43.21875 35.40625 
Q 43.21875 41.609375 39.140625 45 
Q 35.0625 48.390625 27.6875 48.390625 
Q 23 48.390625 18.546875 47.265625 
Q 14.109375 46.140625 10.015625 43.890625 
L 10.015625 52.203125 
Q 14.9375 54.109375 19.578125 55.046875 
Q 24.21875 56 28.609375 56 
Q 40.484375 56 46.34375 49.84375 
Q 52.203125 43.703125 52.203125 31.203125 
z
" id="DejaVuSans-61"/>
      <path d="M 18.3125 70.21875 
L 18.3125 54.6875 
L 36.8125 54.6875 
L 36.8125 47.703125 
L 18.3125 47.703125 
L 18.3125 18.015625 
Q 18.3125 11.328125 20.140625 9.421875 
Q 21.96875 7.515625 27.59375 7.515625 
L 36.8125 7.515625 
L 36.8125 0 
L 27.59375 0 
Q 17.1875 0 13.234375 3.875 
Q 9.28125 7.765625 9.28125 18.015625 
L 9.28125 47.703125 
L 2.6875 47.703125 
L 2.6875 54.6875 
L 9.28125 54.6875 
L 9.28125 70.21875 
z
" id="DejaVuSans-74"/>
     </defs>
     <g transform="translate(219.883437 326.182437)scale(0.1 -0.1)">
      <use xlink:href="#DejaVuSans-58"/>
      <use x="68.505859" xlink:href="#DejaVuSans-20"/>
      <use x="100.292969" xlink:href="#DejaVuSans-64"/>
      <use x="163.769531" xlink:href="#DejaVuSans-61"/>
      <use x="225.048828" xlink:href="#DejaVuSans-74"/>
      <use x="264.257812" xlink:href="#DejaVuSans-61"/>
     </g>
    </g>
   </g>
   <g id="matplotlib.axis_2">
    <g id="ytick_1"/>
    <g id="ytick_2"/>
    <g id="ytick_3"/>
    <g id="ytick_4"/>
    <g id="ytick_5"/>
    <g id="ytick_6"/>
    <g id="text_2">
     <!-- Y data -->
     <defs>
      <path d="M -0.203125 72.90625 
L 10.40625 72.90625 
L 30.609375 42.921875 
L 50.6875 72.90625 
L 61.28125 72.90625 
L 35.5 34.71875 
L 35.5 0 
L 25.59375 0 
L 25.59375 34.71875 
z
" id="DejaVuSans-59"/>
     </defs>
     <g transform="translate(44.520313 190.433469)rotate(-90)scale(0.1 -0.1)">
      <use xlink:href="#DejaVuSans-59"/>
      <use x="61.083984" xlink:href="#DejaVuSans-20"/>
      <use x="92.871094" xlink:href="#DejaVuSans-64"/>
      <use x="156.347656" xlink:href="#DejaVuSans-61"/>
      <use x="217.626953" xlink:href="#DejaVuSans-74"/>
      <use x="256.835938" xlink:href="#DejaVuSans-61"/>
     </g>
    </g>
   </g>
   <g id="line2d_1">
    <path clip-path="url(#pe98bedf590)" d="M 73.876661 295.488 
L 77.155556 293.302745 
L 80.434451 291.117489 
L 83.713346 288.932234 
L 86.992241 286.746979 
L 90.271136 284.561723 
L 93.550031 282.376468 
L 96.828926 280.191212 
L 100.107821 278.005957 
L 103.386716 275.820702 
L 106.665611 273.635446 
L 109.944506 271.450191 
L 113.223401 269.264936 
L 116.502297 267.07968 
L 119.781192 264.894425 
L 123.060087 262.709169 
L 126.338982 260.523914 
L 129.617877 258.338659 
L 132.896772 256.153403 
L 136.175667 253.968148 
L 139.454562 251.782893 
L 142.733457 249.597637 
L 146.012352 247.412382 
L 149.291247 245.227126 
L 152.570142 243.041871 
L 155.849037 240.856616 
L 159.127932 238.67136 
L 162.406828 236.486105 
L 165.685723 234.30085 
L 168.964618 232.115594 
L 172.243513 229.930339 
L 175.522408 227.745083 
L 178.801303 225.559828 
L 182.080198 223.374573 
L 185.359093 221.189317 
L 188.637988 219.004062 
L 191.916883 216.818807 
L 195.195778 214.633551 
L 198.474673 212.448296 
L 201.753568 210.263041 
L 205.032463 208.077785 
L 208.311359 205.89253 
L 211.590254 203.707274 
L 214.869149 201.522019 
L 218.148044 199.336764 
L 221.426939 197.151508 
L 224.705834 194.966253 
L 227.984729 192.780998 
L 231.263624 190.595742 
L 234.542519 188.410487 
L 237.821414 186.225231 
L 241.100309 184.039976 
L 244.379204 181.854721 
L 247.658099 179.669465 
L 250.936994 177.48421 
L 254.21589 175.298955 
L 257.494785 173.113699 
L 260.77368 170.928444 
L 264.052575 168.743188 
L 267.33147 166.557933 
L 270.610365 164.372678 
L 273.88926 162.187422 
L 277.168155 160.002167 
L 280.44705 157.816912 
L 283.725945 155.631656 
L 287.00484 153.446401 
L 290.283735 151.261145 
L 293.56263 149.07589 
L 296.841525 146.890635 
L 300.120421 144.705379 
L 303.399316 142.520124 
L 306.678211 140.334869 
L 309.957106 138.149613 
L 313.236001 135.964358 
L 316.514896 133.779103 
L 319.793791 131.593847 
L 323.072686 129.408592 
L 326.351581 127.223336 
L 329.630476 125.038081 
L 332.909371 122.852826 
L 336.188266 120.66757 
L 339.467161 118.482315 
L 342.746057 116.29706 
L 346.024952 114.111804 
L 349.303847 111.926549 
L 352.582742 109.741293 
L 355.861637 107.556038 
L 359.140532 105.370783 
L 362.419427 103.185527 
L 365.698322 101.000272 
L 368.977217 98.815017 
L 372.256112 96.629761 
L 375.535007 94.444506 
L 378.813902 92.25925 
L 382.092797 90.073995 
L 385.371692 87.88874 
L 388.650588 85.703484 
L 391.929483 83.518229 
L 395.208378 81.332974 
L 398.487273 79.147718 
" style="fill:none;stroke:#000000;stroke-dasharray:5.55,2.4;stroke-dashoffset:0;stroke-width:1.5;"/>
   </g>
   <g id="patch_4">
    <path d="M 57.6 307.584 
L 57.6 41.472 
" style="fill:none;stroke:#000000;stroke-linecap:square;stroke-linejoin:miter;stroke-width:0.8;"/>
   </g>
   <g id="patch_5">
    <path d="M 414.72 307.584 
L 414.72 41.472 
" style="fill:none;stroke:#000000;stroke-linecap:square;stroke-linejoin:miter;stroke-width:0.8;"/>
   </g>
   <g id="patch_6">
    <path d="M 57.6 307.584 
L 414.72 307.584 
" style="fill:none;stroke:#000000;stroke-linecap:square;stroke-linejoin:miter;stroke-width:0.8;"/>
   </g>
   <g id="patch_7">
    <path d="M 57.6 41.472 
L 414.72 41.472 
" style="fill:none;stroke:#000000;stroke-linecap:square;stroke-linejoin:miter;stroke-width:0.8;"/>
   </g>
   <g id="text_3">
    <!-- Extrapolation -->
    <defs>
     <path d="M 9.8125 72.90625 
L 55.90625 72.90625 
L 55.90625 64.59375 
L 19.671875 64.59375 
L 19.671875 43.015625 
L 54.390625 43.015625 
L 54.390625 34.71875 
L 19.671875 34.71875 
L 19.671875 8.296875 
L 56.78125 8.296875 
L 56.78125 0 
L 9.8125 0 
z
" id="DejaVuSans-45"/>
     <path d="M 54.890625 54.6875 
L 35.109375 28.078125 
L 55.90625 0 
L 45.3125 0 
L 29.390625 21.484375 
L 13.484375 0 
L 2.875 0 
L 24.125 28.609375 
L 4.6875 54.6875 
L 15.28125 54.6875 
L 29.78125 35.203125 
L 44.28125 54.6875 
z
" id="DejaVuSans-78"/>
     <path d="M 41.109375 46.296875 
Q 39.59375 47.171875 37.8125 47.578125 
Q 36.03125 48 33.890625 48 
Q 26.265625 48 22.1875 43.046875 
Q 18.109375 38.09375 18.109375 28.8125 
L 18.109375 0 
L 9.078125 0 
L 9.078125 54.6875 
L 18.109375 54.6875 
L 18.109375 46.1875 
Q 20.953125 51.171875 25.484375 53.578125 
Q 30.03125 56 36.53125 56 
Q 37.453125 56 38.578125 55.875 
Q 39.703125 55.765625 41.0625 55.515625 
z
" id="DejaVuSans-72"/>
     <path d="M 18.109375 8.203125 
L 18.109375 -20.796875 
L 9.078125 -20.796875 
L 9.078125 54.6875 
L 18.109375 54.6875 
L 18.109375 46.390625 
Q 20.953125 51.265625 25.265625 53.625 
Q 29.59375 56 35.59375 56 
Q 45.5625 56 51.78125 48.09375 
Q 58.015625 40.1875 58.015625 27.296875 
Q 58.015625 14.40625 51.78125 6.484375 
Q 45.5625 -1.421875 35.59375 -1.421875 
Q 29.59375 -1.421875 25.265625 0.953125 
Q 20.953125 3.328125 18.109375 8.203125 
z
M 48.6875 27.296875 
Q 48.6875 37.203125 44.609375 42.84375 
Q 40.53125 48.484375 33.40625 48.484375 
Q 26.265625 48.484375 22.1875 42.84375 
Q 18.109375 37.203125 18.109375 27.296875 
Q 18.109375 17.390625 22.1875 11.75 
Q 26.265625 6.109375 33.40625 6.109375 
Q 40.53125 6.109375 44.609375 11.75 
Q 48.6875 17.390625 48.6875 27.296875 
z
" id="DejaVuSans-70"/>
     <path d="M 30.609375 48.390625 
Q 23.390625 48.390625 19.1875 42.75 
Q 14.984375 37.109375 14.984375 27.296875 
Q 14.984375 17.484375 19.15625 11.84375 
Q 23.34375 6.203125 30.609375 6.203125 
Q 37.796875 6.203125 41.984375 11.859375 
Q 46.1875 17.53125 46.1875 27.296875 
Q 46.1875 37.015625 41.984375 42.703125 
Q 37.796875 48.390625 30.609375 48.390625 
z
M 30.609375 56 
Q 42.328125 56 49.015625 48.375 
Q 55.71875 40.765625 55.71875 27.296875 
Q 55.71875 13.875 49.015625 6.21875 
Q 42.328125 -1.421875 30.609375 -1.421875 
Q 18.84375 -1.421875 12.171875 6.21875 
Q 5.515625 13.875 5.515625 27.296875 
Q 5.515625 40.765625 12.171875 48.375 
Q 18.84375 56 30.609375 56 
z
" id="DejaVuSans-6f"/>
     <path d="M 9.421875 75.984375 
L 18.40625 75.984375 
L 18.40625 0 
L 9.421875 0 
z
" id="DejaVuSans-6c"/>
     <path d="M 9.421875 54.6875 
L 18.40625 54.6875 
L 18.40625 0 
L 9.421875 0 
z
M 9.421875 75.984375 
L 18.40625 75.984375 
L 18.40625 64.59375 
L 9.421875 64.59375 
z
" id="DejaVuSans-69"/>
     <path d="M 54.890625 33.015625 
L 54.890625 0 
L 45.90625 0 
L 45.90625 32.71875 
Q 45.90625 40.484375 42.875 44.328125 
Q 39.84375 48.1875 33.796875 48.1875 
Q 26.515625 48.1875 22.3125 43.546875 
Q 18.109375 38.921875 18.109375 30.90625 
L 18.109375 0 
L 9.078125 0 
L 9.078125 54.6875 
L 18.109375 54.6875 
L 18.109375 46.1875 
Q 21.34375 51.125 25.703125 53.5625 
Q 30.078125 56 35.796875 56 
Q 45.21875 56 50.046875 50.171875 
Q 54.890625 44.34375 54.890625 33.015625 
z
" id="DejaVuSans-6e"/>
    </defs>
    <g transform="translate(196.005 35.472)scale(0.12 -0.12)">
     <use xlink:href="#DejaVuSans-45"/>
     <use x="63.183594" xlink:href="#DejaVuSans-78"/>
     <use x="122.363281" xlink:href="#DejaVuSans-74"/>
     <use x="161.572266" xlink:href="#DejaVuSans-72"/>
     <use x="202.685547" xlink:href="#DejaVuSans-61"/>
     <use x="263.964844" xlink:href="#DejaVuSans-70"/>
     <use x="327.441406" xlink:href="#DejaVuSans-6f"/>
     <use x="388.623047" xlink:href="#DejaVuSans-6c"/>
     <use x="416.40625" xlink:href="#DejaVuSans-61"/>
     <use x="477.685547" xlink:href="#DejaVuSans-74"/>
     <use x="516.894531" xlink:href="#DejaVuSans-69"/>
     <use x="544.677734" xlink:href="#DejaVuSans-6f"/>
     <use x="605.859375" xlink:href="#DejaVuSans-6e"/>
    </g>
   </g>
  </g>
 </g>
 <defs>
  <clipPath id="pe98bedf590">
   <rect height="266.112" width="357.12" x="57.6" y="41.472"/>
  </clipPath>
 </defs>
</svg>
