<?xml version="1.0" encoding="utf-8" standalone="no"?>
<!DOCTYPE svg PUBLIC "-//W3C//DTD SVG 1.1//EN"
  "http://www.w3.org/Graphics/SVG/1.1/DTD/svg11.dtd">
<!-- Created with matplotlib (http://matplotlib.org/) -->
<svg height="345pt" version="1.1" viewBox="0 0 460 345" width="460pt" xmlns="http://www.w3.org/2000/svg" xmlns:xlink="http://www.w3.org/1999/xlink">
 <defs>
  <style type="text/css">
*{stroke-linecap:butt;stroke-linejoin:round;}
  </style>
 </defs>
 <g id="figure_1">
  <g id="patch_1">
   <path d="M 0 345.6 
L 460.8 345.6 
L 460.8 0 
L 0 0 
z
" style="fill:#ffffff;"/>
  </g>
  <g id="axes_1">
   <g id="patch_2">
    <path d="M 57.6 307.584 
L 414.72 307.584 
L 414.72 41.472 
L 57.6 41.472 
z
" style="fill:#ffffff;"/>
   </g>
   <g id="PolyCollection_1">
    <path clip-path="url(#p99ea768034)" d="M 63.908065 307.125405 
L 63.908065 307.584 
L 67.395877 307.584 
L 70.883689 307.584 
L 74.371501 307.584 
L 77.859313 307.584 
L 81.347125 307.584 
L 84.834937 307.584 
L 88.322749 307.584 
L 91.810561 307.584 
L 95.298373 307.584 
L 98.786185 307.584 
L 102.273997 307.584 
L 105.761809 307.584 
L 109.249622 307.584 
L 112.737434 307.584 
L 116.225246 307.584 
L 119.713058 307.584 
L 123.20087 307.584 
L 126.688682 307.584 
L 130.176494 307.584 
L 133.664306 307.584 
L 137.152118 307.584 
L 140.63993 307.584 
L 144.127742 307.584 
L 147.615554 307.584 
L 151.103366 307.584 
L 154.591178 307.584 
L 158.07899 307.584 
L 161.566802 307.584 
L 165.054614 307.584 
L 168.542426 307.584 
L 172.030238 307.584 
L 175.51805 307.584 
L 179.005862 307.584 
L 182.493674 307.584 
L 185.981486 307.584 
L 189.469298 307.584 
L 192.95711 307.584 
L 196.444922 307.584 
L 199.932734 307.584 
L 203.420546 307.584 
L 206.908358 307.584 
L 210.39617 307.584 
L 213.883982 307.584 
L 217.371794 307.584 
L 220.859606 307.584 
L 224.347419 307.584 
L 227.835231 307.584 
L 231.323043 307.584 
L 234.810855 307.584 
L 238.298667 307.584 
L 241.786479 307.584 
L 245.274291 307.584 
L 248.762103 307.584 
L 252.249915 307.584 
L 255.737727 307.584 
L 259.225539 307.584 
L 262.713351 307.584 
L 266.201163 307.584 
L 269.688975 307.584 
L 273.176787 307.584 
L 276.664599 307.584 
L 280.152411 307.584 
L 283.640223 307.584 
L 287.128035 307.584 
L 290.615847 307.584 
L 294.103659 307.584 
L 297.591471 307.584 
L 301.079283 307.584 
L 304.567095 307.584 
L 308.054907 307.584 
L 311.542719 307.584 
L 315.030531 307.584 
L 318.518343 307.584 
L 322.006155 307.584 
L 325.493967 307.584 
L 328.981779 307.584 
L 332.469591 307.584 
L 335.957403 307.584 
L 339.445216 307.584 
L 342.933028 307.584 
L 346.42084 307.584 
L 349.908652 307.584 
L 353.396464 307.584 
L 356.884276 307.584 
L 360.372088 307.584 
L 363.8599 307.584 
L 367.347712 307.584 
L 370.835524 307.584 
L 374.323336 307.584 
L 377.811148 307.584 
L 381.29896 307.584 
L 384.786772 307.584 
L 388.274584 307.584 
L 391.762396 307.584 
L 395.250208 307.584 
L 398.73802 307.584 
L 402.225832 307.584 
L 405.713644 307.584 
L 409.201456 307.584 
L 409.201456 306.936175 
L 409.201456 306.936175 
L 405.713644 306.644374 
L 402.225832 306.239061 
L 398.73802 305.684121 
L 395.250208 304.935189 
L 391.762396 303.938958 
L 388.274584 302.632868 
L 384.786772 300.945353 
L 381.29896 298.796824 
L 377.811148 296.101564 
L 374.323336 292.770659 
L 370.835524 288.716059 
L 367.347712 283.855737 
L 363.8599 278.119822 
L 360.372088 271.457443 
L 356.884276 263.843865 
L 353.396464 255.287372 
L 349.908652 245.835242 
L 346.42084 235.5781 
L 342.933028 224.651922 
L 339.445216 213.237082 
L 335.957403 201.553969 
L 332.469591 189.854993 
L 328.981779 178.413094 
L 325.493967 167.507235 
L 322.006155 157.405728 
L 318.518343 148.348546 
L 315.030531 140.530007 
L 311.542719 134.083329 
L 308.054907 129.068524 
L 304.567095 125.464892 
L 301.079283 123.169059 
L 297.591471 121.999067 
L 294.103659 121.704508 
L 290.615847 121.982145 
L 287.128035 122.496026 
L 283.640223 122.900633 
L 280.152411 122.865384 
L 276.664599 122.098636 
L 273.176787 120.369402 
L 269.688975 117.525137 
L 266.201163 113.504288 
L 262.713351 108.342686 
L 259.225539 102.173322 
L 255.737727 95.219552 
L 252.249915 87.782231 
L 248.762103 80.221712 
L 245.274291 72.935977 
L 241.786479 66.336435 
L 238.298667 60.82303 
L 234.810855 56.760328 
L 231.323043 54.456136 
L 227.835231 54.144 
L 224.347419 55.970612 
L 220.859606 59.988797 
L 217.371794 66.15634 
L 213.883982 74.340517 
L 210.39617 84.327802 
L 206.908358 95.837916 
L 203.420546 108.541124 
L 199.932734 122.077528 
L 196.444922 136.077047 
L 192.95711 150.178797 
L 189.469298 164.048696 
L 185.981486 177.394296 
L 182.493674 189.976093 
L 179.005862 201.614819 
L 175.51805 212.19454 
L 172.030238 221.661639 
L 168.542426 230.02007 
L 165.054614 237.32348 
L 161.566802 243.664999 
L 158.07899 249.165598 
L 154.591178 253.961996 
L 151.103366 258.19501 
L 147.615554 261.999199 
L 144.127742 265.494443 
L 140.63993 268.779879 
L 137.152118 271.930417 
L 133.664306 274.995754 
L 130.176494 278.001647 
L 126.688682 280.952995 
L 123.20087 283.83819 
L 119.713058 286.634145 
L 116.225246 289.31142 
L 112.737434 291.838975 
L 109.249622 294.188156 
L 105.761809 296.33569 
L 102.273997 298.265593 
L 98.786185 299.970016 
L 95.298373 301.449175 
L 91.810561 302.710548 
L 88.322749 303.767583 
L 84.834937 304.638137 
L 81.347125 305.342856 
L 77.859313 305.903656 
L 74.371501 306.34242 
L 70.883689 306.679973 
L 67.395877 306.935361 
L 63.908065 307.125405 
z
" style="fill:#1f77b4;fill-opacity:0.25;"/>
   </g>
   <g id="matplotlib.axis_1">
    <g id="xtick_1"/>
    <g id="xtick_2">
     <g id="text_1">
      <!-- Underestimate -->
      <defs>
       <path d="M 54.6875 71.578125 
L 64.15625 71.578125 
L 64.15625 30.21875 
Q 64.15625 19.4375 61.71875 13.078125 
Q 59.28125 6.734375 52.90625 2.75 
Q 46.53125 -1.21875 36.1875 -1.21875 
Q 26.125 -1.21875 19.71875 2.25 
Q 13.328125 5.71875 10.59375 12.28125 
Q 7.859375 18.84375 7.859375 30.21875 
L 7.859375 71.578125 
L 17.328125 71.578125 
L 17.328125 30.28125 
Q 17.328125 20.953125 19.0625 16.53125 
Q 20.796875 12.109375 25.015625 9.71875 
Q 29.25 7.328125 35.359375 7.328125 
Q 45.796875 7.328125 50.234375 12.0625 
Q 54.6875 16.796875 54.6875 30.28125 
z
" id="ArialMT-55"/>
       <path d="M 6.59375 0 
L 6.59375 51.859375 
L 14.5 51.859375 
L 14.5 44.484375 
Q 20.21875 53.03125 31 53.03125 
Q 35.6875 53.03125 39.625 51.34375 
Q 43.5625 49.65625 45.515625 46.921875 
Q 47.46875 44.1875 48.25 40.4375 
Q 48.734375 37.984375 48.734375 31.890625 
L 48.734375 0 
L 39.9375 0 
L 39.9375 31.546875 
Q 39.9375 36.921875 38.90625 39.578125 
Q 37.890625 42.234375 35.28125 43.8125 
Q 32.671875 45.40625 29.15625 45.40625 
Q 23.53125 45.40625 19.453125 41.84375 
Q 15.375 38.28125 15.375 28.328125 
L 15.375 0 
z
" id="ArialMT-6e"/>
       <path d="M 40.234375 0 
L 40.234375 6.546875 
Q 35.296875 -1.171875 25.734375 -1.171875 
Q 19.53125 -1.171875 14.328125 2.25 
Q 9.125 5.671875 6.265625 11.796875 
Q 3.421875 17.921875 3.421875 25.875 
Q 3.421875 33.640625 6 39.96875 
Q 8.59375 46.296875 13.765625 49.65625 
Q 18.953125 53.03125 25.34375 53.03125 
Q 30.03125 53.03125 33.6875 51.046875 
Q 37.359375 49.078125 39.65625 45.90625 
L 39.65625 71.578125 
L 48.390625 71.578125 
L 48.390625 0 
z
M 12.453125 25.875 
Q 12.453125 15.921875 16.640625 10.984375 
Q 20.84375 6.0625 26.5625 6.0625 
Q 32.328125 6.0625 36.34375 10.765625 
Q 40.375 15.484375 40.375 25.140625 
Q 40.375 35.796875 36.265625 40.765625 
Q 32.171875 45.75 26.171875 45.75 
Q 20.3125 45.75 16.375 40.96875 
Q 12.453125 36.1875 12.453125 25.875 
z
" id="ArialMT-64"/>
       <path d="M 42.09375 16.703125 
L 51.171875 15.578125 
Q 49.03125 7.625 43.21875 3.21875 
Q 37.40625 -1.171875 28.375 -1.171875 
Q 17 -1.171875 10.328125 5.828125 
Q 3.65625 12.84375 3.65625 25.484375 
Q 3.65625 38.578125 10.390625 45.796875 
Q 17.140625 53.03125 27.875 53.03125 
Q 38.28125 53.03125 44.875 45.953125 
Q 51.46875 38.875 51.46875 26.03125 
Q 51.46875 25.25 51.421875 23.6875 
L 12.75 23.6875 
Q 13.234375 15.140625 17.578125 10.59375 
Q 21.921875 6.0625 28.421875 6.0625 
Q 33.25 6.0625 36.671875 8.59375 
Q 40.09375 11.140625 42.09375 16.703125 
z
M 13.234375 30.90625 
L 42.1875 30.90625 
Q 41.609375 37.453125 38.875 40.71875 
Q 34.671875 45.796875 27.984375 45.796875 
Q 21.921875 45.796875 17.796875 41.75 
Q 13.671875 37.703125 13.234375 30.90625 
z
" id="ArialMT-65"/>
       <path d="M 6.5 0 
L 6.5 51.859375 
L 14.40625 51.859375 
L 14.40625 44 
Q 17.4375 49.515625 20 51.265625 
Q 22.5625 53.03125 25.640625 53.03125 
Q 30.078125 53.03125 34.671875 50.203125 
L 31.640625 42.046875 
Q 28.421875 43.953125 25.203125 43.953125 
Q 22.3125 43.953125 20.015625 42.21875 
Q 17.71875 40.484375 16.75 37.40625 
Q 15.28125 32.71875 15.28125 27.15625 
L 15.28125 0 
z
" id="ArialMT-72"/>
       <path d="M 3.078125 15.484375 
L 11.765625 16.84375 
Q 12.5 11.625 15.84375 8.84375 
Q 19.1875 6.0625 25.203125 6.0625 
Q 31.25 6.0625 34.171875 8.515625 
Q 37.109375 10.984375 37.109375 14.3125 
Q 37.109375 17.28125 34.515625 19 
Q 32.71875 20.171875 25.53125 21.96875 
Q 15.875 24.421875 12.140625 26.203125 
Q 8.40625 27.984375 6.46875 31.125 
Q 4.546875 34.28125 4.546875 38.09375 
Q 4.546875 41.546875 6.125 44.5 
Q 7.71875 47.46875 10.453125 49.421875 
Q 12.5 50.921875 16.03125 51.96875 
Q 19.578125 53.03125 23.640625 53.03125 
Q 29.734375 53.03125 34.34375 51.265625 
Q 38.96875 49.515625 41.15625 46.5 
Q 43.359375 43.5 44.1875 38.484375 
L 35.59375 37.3125 
Q 35.015625 41.3125 32.203125 43.546875 
Q 29.390625 45.796875 24.265625 45.796875 
Q 18.21875 45.796875 15.625 43.796875 
Q 13.03125 41.796875 13.03125 39.109375 
Q 13.03125 37.40625 14.109375 36.03125 
Q 15.1875 34.625 17.484375 33.6875 
Q 18.796875 33.203125 25.25 31.453125 
Q 34.578125 28.953125 38.25 27.359375 
Q 41.9375 25.78125 44.03125 22.75 
Q 46.140625 19.734375 46.140625 15.234375 
Q 46.140625 10.84375 43.578125 6.953125 
Q 41.015625 3.078125 36.171875 0.953125 
Q 31.34375 -1.171875 25.25 -1.171875 
Q 15.140625 -1.171875 9.84375 3.03125 
Q 4.546875 7.234375 3.078125 15.484375 
z
" id="ArialMT-73"/>
       <path d="M 25.78125 7.859375 
L 27.046875 0.09375 
Q 23.34375 -0.6875 20.40625 -0.6875 
Q 15.625 -0.6875 12.984375 0.828125 
Q 10.359375 2.34375 9.28125 4.8125 
Q 8.203125 7.28125 8.203125 15.1875 
L 8.203125 45.015625 
L 1.765625 45.015625 
L 1.765625 51.859375 
L 8.203125 51.859375 
L 8.203125 64.703125 
L 16.9375 69.96875 
L 16.9375 51.859375 
L 25.78125 51.859375 
L 25.78125 45.015625 
L 16.9375 45.015625 
L 16.9375 14.703125 
Q 16.9375 10.9375 17.40625 9.859375 
Q 17.875 8.796875 18.921875 8.15625 
Q 19.96875 7.515625 21.921875 7.515625 
Q 23.390625 7.515625 25.78125 7.859375 
z
" id="ArialMT-74"/>
       <path d="M 6.640625 61.46875 
L 6.640625 71.578125 
L 15.4375 71.578125 
L 15.4375 61.46875 
z
M 6.640625 0 
L 6.640625 51.859375 
L 15.4375 51.859375 
L 15.4375 0 
z
" id="ArialMT-69"/>
       <path d="M 6.59375 0 
L 6.59375 51.859375 
L 14.453125 51.859375 
L 14.453125 44.578125 
Q 16.890625 48.390625 20.9375 50.703125 
Q 25 53.03125 30.171875 53.03125 
Q 35.9375 53.03125 39.625 50.640625 
Q 43.3125 48.25 44.828125 43.953125 
Q 50.984375 53.03125 60.84375 53.03125 
Q 68.5625 53.03125 72.703125 48.75 
Q 76.859375 44.484375 76.859375 35.59375 
L 76.859375 0 
L 68.109375 0 
L 68.109375 32.671875 
Q 68.109375 37.9375 67.25 40.25 
Q 66.40625 42.578125 64.15625 43.984375 
Q 61.921875 45.40625 58.890625 45.40625 
Q 53.421875 45.40625 49.796875 41.765625 
Q 46.1875 38.140625 46.1875 30.125 
L 46.1875 0 
L 37.40625 0 
L 37.40625 33.6875 
Q 37.40625 39.546875 35.25 42.46875 
Q 33.109375 45.40625 28.21875 45.40625 
Q 24.515625 45.40625 21.359375 43.453125 
Q 18.21875 41.5 16.796875 37.734375 
Q 15.375 33.984375 15.375 26.90625 
L 15.375 0 
z
" id="ArialMT-6d"/>
       <path d="M 40.4375 6.390625 
Q 35.546875 2.25 31.03125 0.53125 
Q 26.515625 -1.171875 21.34375 -1.171875 
Q 12.796875 -1.171875 8.203125 3 
Q 3.609375 7.171875 3.609375 13.671875 
Q 3.609375 17.484375 5.34375 20.625 
Q 7.078125 23.78125 9.890625 25.6875 
Q 12.703125 27.59375 16.21875 28.5625 
Q 18.796875 29.25 24.03125 29.890625 
Q 34.671875 31.15625 39.703125 32.90625 
Q 39.75 34.71875 39.75 35.203125 
Q 39.75 40.578125 37.25 42.78125 
Q 33.890625 45.75 27.25 45.75 
Q 21.046875 45.75 18.09375 43.578125 
Q 15.140625 41.40625 13.71875 35.890625 
L 5.125 37.0625 
Q 6.296875 42.578125 8.984375 45.96875 
Q 11.671875 49.359375 16.75 51.1875 
Q 21.828125 53.03125 28.515625 53.03125 
Q 35.15625 53.03125 39.296875 51.46875 
Q 43.453125 49.90625 45.40625 47.53125 
Q 47.359375 45.171875 48.140625 41.546875 
Q 48.578125 39.3125 48.578125 33.453125 
L 48.578125 21.734375 
Q 48.578125 9.46875 49.140625 6.21875 
Q 49.703125 2.984375 51.375 0 
L 42.1875 0 
Q 40.828125 2.734375 40.4375 6.390625 
z
M 39.703125 26.03125 
Q 34.90625 24.078125 25.34375 22.703125 
Q 19.921875 21.921875 17.671875 20.9375 
Q 15.4375 19.96875 14.203125 18.09375 
Q 12.984375 16.21875 12.984375 13.921875 
Q 12.984375 10.40625 15.640625 8.0625 
Q 18.3125 5.71875 23.4375 5.71875 
Q 28.515625 5.71875 32.46875 7.9375 
Q 36.421875 10.15625 38.28125 14.015625 
Q 39.703125 17 39.703125 22.796875 
z
" id="ArialMT-61"/>
      </defs>
      <g transform="translate(71.6025 324.604938)scale(0.14 -0.14)">
       <use xlink:href="#ArialMT-55"/>
       <use x="72.216797" xlink:href="#ArialMT-6e"/>
       <use x="127.832031" xlink:href="#ArialMT-64"/>
       <use x="183.447266" xlink:href="#ArialMT-65"/>
       <use x="239.0625" xlink:href="#ArialMT-72"/>
       <use x="272.363281" xlink:href="#ArialMT-65"/>
       <use x="327.978516" xlink:href="#ArialMT-73"/>
       <use x="377.978516" xlink:href="#ArialMT-74"/>
       <use x="405.761719" xlink:href="#ArialMT-69"/>
       <use x="427.978516" xlink:href="#ArialMT-6d"/>
       <use x="511.279297" xlink:href="#ArialMT-61"/>
       <use x="566.894531" xlink:href="#ArialMT-74"/>
       <use x="594.677734" xlink:href="#ArialMT-65"/>
      </g>
     </g>
    </g>
    <g id="xtick_3"/>
    <g id="xtick_4">
     <g id="text_2">
      <!-- No -->
      <defs>
       <path d="M 7.625 0 
L 7.625 71.578125 
L 17.328125 71.578125 
L 54.9375 15.375 
L 54.9375 71.578125 
L 64.015625 71.578125 
L 64.015625 0 
L 54.296875 0 
L 16.703125 56.25 
L 16.703125 0 
z
" id="ArialMT-4e"/>
       <path d="M 3.328125 25.921875 
Q 3.328125 40.328125 11.328125 47.265625 
Q 18.015625 53.03125 27.640625 53.03125 
Q 38.328125 53.03125 45.109375 46.015625 
Q 51.90625 39.015625 51.90625 26.65625 
Q 51.90625 16.65625 48.90625 10.90625 
Q 45.90625 5.171875 40.15625 2 
Q 34.421875 -1.171875 27.640625 -1.171875 
Q 16.75 -1.171875 10.03125 5.8125 
Q 3.328125 12.796875 3.328125 25.921875 
z
M 12.359375 25.921875 
Q 12.359375 15.96875 16.703125 11.015625 
Q 21.046875 6.0625 27.640625 6.0625 
Q 34.1875 6.0625 38.53125 11.03125 
Q 42.875 16.015625 42.875 26.21875 
Q 42.875 35.84375 38.5 40.796875 
Q 34.125 45.75 27.640625 45.75 
Q 21.046875 45.75 16.703125 40.8125 
Q 12.359375 35.890625 12.359375 25.921875 
z
" id="ArialMT-6f"/>
      </defs>
      <g transform="translate(227.212031 324.604938)scale(0.14 -0.14)">
       <use xlink:href="#ArialMT-4e"/>
       <use x="72.216797" xlink:href="#ArialMT-6f"/>
      </g>
      <!-- Error -->
      <defs>
       <path d="M 7.90625 0 
L 7.90625 71.578125 
L 59.671875 71.578125 
L 59.671875 63.140625 
L 17.390625 63.140625 
L 17.390625 41.21875 
L 56.984375 41.21875 
L 56.984375 32.8125 
L 17.390625 32.8125 
L 17.390625 8.453125 
L 61.328125 8.453125 
L 61.328125 0 
z
" id="ArialMT-45"/>
      </defs>
      <g transform="translate(220.605781 339.412562)scale(0.14 -0.14)">
       <use xlink:href="#ArialMT-45"/>
       <use x="66.699219" xlink:href="#ArialMT-72"/>
       <use x="100" xlink:href="#ArialMT-72"/>
       <use x="133.300781" xlink:href="#ArialMT-6f"/>
       <use x="188.916016" xlink:href="#ArialMT-72"/>
      </g>
     </g>
    </g>
    <g id="xtick_5"/>
    <g id="xtick_6">
     <g id="text_3">
      <!-- Overestimate -->
      <defs>
       <path d="M 4.828125 34.859375 
Q 4.828125 52.6875 14.390625 62.765625 
Q 23.96875 72.859375 39.109375 72.859375 
Q 49.03125 72.859375 56.984375 68.109375 
Q 64.9375 63.375 69.109375 54.90625 
Q 73.296875 46.4375 73.296875 35.6875 
Q 73.296875 24.8125 68.890625 16.21875 
Q 64.5 7.625 56.4375 3.203125 
Q 48.390625 -1.21875 39.0625 -1.21875 
Q 28.953125 -1.21875 20.984375 3.65625 
Q 13.03125 8.546875 8.921875 16.984375 
Q 4.828125 25.4375 4.828125 34.859375 
z
M 14.59375 34.71875 
Q 14.59375 21.78125 21.546875 14.328125 
Q 28.515625 6.890625 39.015625 6.890625 
Q 49.703125 6.890625 56.609375 14.40625 
Q 63.53125 21.921875 63.53125 35.75 
Q 63.53125 44.484375 60.578125 51 
Q 57.625 57.515625 51.921875 61.109375 
Q 46.234375 64.703125 39.15625 64.703125 
Q 29.109375 64.703125 21.84375 57.78125 
Q 14.59375 50.875 14.59375 34.71875 
z
" id="ArialMT-4f"/>
       <path d="M 21 0 
L 1.265625 51.859375 
L 10.546875 51.859375 
L 21.6875 20.796875 
Q 23.484375 15.765625 25 10.359375 
Q 26.171875 14.453125 28.265625 20.21875 
L 39.796875 51.859375 
L 48.828125 51.859375 
L 29.203125 0 
z
" id="ArialMT-76"/>
      </defs>
      <g transform="translate(313.578438 324.604938)scale(0.14 -0.14)">
       <use xlink:href="#ArialMT-4f"/>
       <use x="77.783203" xlink:href="#ArialMT-76"/>
       <use x="127.783203" xlink:href="#ArialMT-65"/>
       <use x="183.398438" xlink:href="#ArialMT-72"/>
       <use x="216.699219" xlink:href="#ArialMT-65"/>
       <use x="272.314453" xlink:href="#ArialMT-73"/>
       <use x="322.314453" xlink:href="#ArialMT-74"/>
       <use x="350.097656" xlink:href="#ArialMT-69"/>
       <use x="372.314453" xlink:href="#ArialMT-6d"/>
       <use x="455.615234" xlink:href="#ArialMT-61"/>
       <use x="511.230469" xlink:href="#ArialMT-74"/>
       <use x="539.013672" xlink:href="#ArialMT-65"/>
      </g>
     </g>
    </g>
    <g id="xtick_7"/>
   </g>
   <g id="matplotlib.axis_2">
    <g id="ytick_1"/>
    <g id="ytick_2"/>
    <g id="ytick_3"/>
    <g id="ytick_4"/>
    <g id="ytick_5"/>
    <g id="ytick_6"/>
    <g id="ytick_7"/>
    <g id="ytick_8"/>
    <g id="ytick_9"/>
    <g id="text_4">
     <!-- Frequency -->
     <defs>
      <path d="M 8.203125 0 
L 8.203125 71.578125 
L 56.5 71.578125 
L 56.5 63.140625 
L 17.671875 63.140625 
L 17.671875 40.96875 
L 51.265625 40.96875 
L 51.265625 32.515625 
L 17.671875 32.515625 
L 17.671875 0 
z
" id="ArialMT-46"/>
      <path d="M 39.65625 -19.875 
L 39.65625 5.515625 
Q 37.59375 2.640625 33.90625 0.734375 
Q 30.21875 -1.171875 26.078125 -1.171875 
Q 16.84375 -1.171875 10.171875 6.203125 
Q 3.515625 13.578125 3.515625 26.421875 
Q 3.515625 34.234375 6.21875 40.421875 
Q 8.9375 46.625 14.078125 49.828125 
Q 19.234375 53.03125 25.390625 53.03125 
Q 35.015625 53.03125 40.53125 44.921875 
L 40.53125 51.859375 
L 48.4375 51.859375 
L 48.4375 -19.875 
z
M 12.546875 26.078125 
Q 12.546875 16.0625 16.75 11.0625 
Q 20.953125 6.0625 26.8125 6.0625 
Q 32.421875 6.0625 36.46875 10.8125 
Q 40.53125 15.578125 40.53125 25.296875 
Q 40.53125 35.640625 36.25 40.859375 
Q 31.984375 46.09375 26.21875 46.09375 
Q 20.515625 46.09375 16.53125 41.234375 
Q 12.546875 36.375 12.546875 26.078125 
z
" id="ArialMT-71"/>
      <path d="M 40.578125 0 
L 40.578125 7.625 
Q 34.515625 -1.171875 24.125 -1.171875 
Q 19.53125 -1.171875 15.546875 0.578125 
Q 11.578125 2.34375 9.640625 5 
Q 7.71875 7.671875 6.9375 11.53125 
Q 6.390625 14.109375 6.390625 19.734375 
L 6.390625 51.859375 
L 15.1875 51.859375 
L 15.1875 23.09375 
Q 15.1875 16.21875 15.71875 13.8125 
Q 16.546875 10.359375 19.234375 8.375 
Q 21.921875 6.390625 25.875 6.390625 
Q 29.828125 6.390625 33.296875 8.421875 
Q 36.765625 10.453125 38.203125 13.9375 
Q 39.65625 17.4375 39.65625 24.078125 
L 39.65625 51.859375 
L 48.4375 51.859375 
L 48.4375 0 
z
" id="ArialMT-75"/>
      <path d="M 40.4375 19 
L 49.078125 17.875 
Q 47.65625 8.9375 41.8125 3.875 
Q 35.984375 -1.171875 27.484375 -1.171875 
Q 16.84375 -1.171875 10.375 5.78125 
Q 3.90625 12.75 3.90625 25.734375 
Q 3.90625 34.125 6.6875 40.421875 
Q 9.46875 46.734375 15.15625 49.875 
Q 20.84375 53.03125 27.546875 53.03125 
Q 35.984375 53.03125 41.359375 48.75 
Q 46.734375 44.484375 48.25 36.625 
L 39.703125 35.296875 
Q 38.484375 40.53125 35.375 43.15625 
Q 32.28125 45.796875 27.875 45.796875 
Q 21.234375 45.796875 17.078125 41.03125 
Q 12.9375 36.28125 12.9375 25.984375 
Q 12.9375 15.53125 16.9375 10.796875 
Q 20.953125 6.0625 27.390625 6.0625 
Q 32.5625 6.0625 36.03125 9.234375 
Q 39.5 12.40625 40.4375 19 
z
" id="ArialMT-63"/>
      <path d="M 6.203125 -19.96875 
L 5.21875 -11.71875 
Q 8.109375 -12.5 10.25 -12.5 
Q 13.1875 -12.5 14.9375 -11.515625 
Q 16.703125 -10.546875 17.828125 -8.796875 
Q 18.65625 -7.46875 20.515625 -2.25 
Q 20.75 -1.515625 21.296875 -0.09375 
L 1.609375 51.859375 
L 11.078125 51.859375 
L 21.875 21.828125 
Q 23.96875 16.109375 25.640625 9.8125 
Q 27.15625 15.875 29.25 21.625 
L 40.328125 51.859375 
L 49.125 51.859375 
L 29.390625 -0.875 
Q 26.21875 -9.421875 24.46875 -12.640625 
Q 22.125 -17 19.09375 -19.015625 
Q 16.0625 -21.046875 11.859375 -21.046875 
Q 9.328125 -21.046875 6.203125 -19.96875 
z
" id="ArialMT-79"/>
     </defs>
     <g transform="translate(43.653437 207.597531)rotate(-90)scale(0.14 -0.14)">
      <use xlink:href="#ArialMT-46"/>
      <use x="61.083984" xlink:href="#ArialMT-72"/>
      <use x="94.384766" xlink:href="#ArialMT-65"/>
      <use x="150" xlink:href="#ArialMT-71"/>
      <use x="205.615234" xlink:href="#ArialMT-75"/>
      <use x="261.230469" xlink:href="#ArialMT-65"/>
      <use x="316.845703" xlink:href="#ArialMT-6e"/>
      <use x="372.460938" xlink:href="#ArialMT-63"/>
      <use x="422.460938" xlink:href="#ArialMT-79"/>
     </g>
    </g>
   </g>
   <g id="LineCollection_1">
    <path clip-path="url(#p99ea768034)" d="M 236.16 307.584 
L 236.16 41.472 
" style="fill:none;stroke:#000000;stroke-dasharray:5.55,2.4;stroke-dashoffset:0;stroke-width:1.5;"/>
   </g>
   <g id="line2d_1">
    <path clip-path="url(#p99ea768034)" d="M 63.908065 307.125405 
L 67.395877 306.935361 
L 70.883689 306.679973 
L 74.371501 306.34242 
L 77.859313 305.903656 
L 81.347125 305.342856 
L 84.834937 304.638137 
L 88.322749 303.767583 
L 91.810561 302.710548 
L 95.298373 301.449175 
L 98.786185 299.970016 
L 102.273997 298.265593 
L 105.761809 296.33569 
L 109.249622 294.188156 
L 112.737434 291.838975 
L 116.225246 289.31142 
L 119.713058 286.634145 
L 123.20087 283.83819 
L 126.688682 280.952995 
L 130.176494 278.001647 
L 133.664306 274.995754 
L 137.152118 271.930417 
L 140.63993 268.779879 
L 144.127742 265.494443 
L 147.615554 261.999199 
L 151.103366 258.19501 
L 154.591178 253.961996 
L 158.07899 249.165598 
L 161.566802 243.664999 
L 165.054614 237.32348 
L 168.542426 230.02007 
L 172.030238 221.661639 
L 175.51805 212.19454 
L 179.005862 201.614819 
L 182.493674 189.976093 
L 185.981486 177.394296 
L 189.469298 164.048696 
L 192.95711 150.178797 
L 196.444922 136.077047 
L 199.932734 122.077528 
L 203.420546 108.541124 
L 206.908358 95.837916 
L 210.39617 84.327802 
L 213.883982 74.340517 
L 217.371794 66.15634 
L 220.859606 59.988797 
L 224.347419 55.970612 
L 227.835231 54.144 
L 231.323043 54.456136 
L 234.810855 56.760328 
L 238.298667 60.82303 
L 241.786479 66.336435 
L 245.274291 72.935977 
L 248.762103 80.221712 
L 252.249915 87.782231 
L 255.737727 95.219552 
L 259.225539 102.173322 
L 262.713351 108.342686 
L 266.201163 113.504288 
L 269.688975 117.525137 
L 273.176787 120.369402 
L 276.664599 122.098636 
L 280.152411 122.865384 
L 283.640223 122.900633 
L 287.128035 122.496026 
L 290.615847 121.982145 
L 294.103659 121.704508 
L 297.591471 121.999067 
L 301.079283 123.169059 
L 304.567095 125.464892 
L 308.054907 129.068524 
L 311.542719 134.083329 
L 315.030531 140.530007 
L 318.518343 148.348546 
L 322.006155 157.405728 
L 325.493967 167.507235 
L 328.981779 178.413094 
L 332.469591 189.854993 
L 335.957403 201.553969 
L 339.445216 213.237082 
L 342.933028 224.651922 
L 346.42084 235.5781 
L 349.908652 245.835242 
L 353.396464 255.287372 
L 356.884276 263.843865 
L 360.372088 271.457443 
L 363.8599 278.119822 
L 367.347712 283.855737 
L 370.835524 288.716059 
L 374.323336 292.770659 
L 377.811148 296.101564 
L 381.29896 298.796824 
L 384.786772 300.945353 
L 388.274584 302.632868 
L 391.762396 303.938958 
L 395.250208 304.935189 
L 398.73802 305.684121 
L 402.225832 306.239061 
L 405.713644 306.644374 
L 409.201456 306.936175 
" style="fill:none;stroke:#1f77b4;stroke-linecap:square;stroke-width:3;"/>
   </g>
   <g id="patch_3">
    <path d="M 57.6 307.584 
L 57.6 41.472 
" style="fill:none;stroke:#000000;stroke-linecap:square;stroke-linejoin:miter;stroke-width:0.8;"/>
   </g>
   <g id="patch_4">
    <path d="M 414.72 307.584 
L 414.72 41.472 
" style="fill:none;stroke:#000000;stroke-linecap:square;stroke-linejoin:miter;stroke-width:0.8;"/>
   </g>
   <g id="patch_5">
    <path d="M 57.6 307.584 
L 414.72 307.584 
" style="fill:none;stroke:#000000;stroke-linecap:square;stroke-linejoin:miter;stroke-width:0.8;"/>
   </g>
   <g id="patch_6">
    <path d="M 57.6 41.472 
L 414.72 41.472 
" style="fill:none;stroke:#000000;stroke-linecap:square;stroke-linejoin:miter;stroke-width:0.8;"/>
   </g>
  </g>
 </g>
 <defs>
  <clipPath id="p99ea768034">
   <rect height="266.112" width="357.12" x="57.6" y="41.472"/>
  </clipPath>
 </defs>
</svg>
